<svg xmlns="http://www.w3.org/2000/svg" viewBox="0 0 297 528"><defs><style>.cls-1{fill:#43204e;}.cls-2{font-size:50px;font-family:SnellRoundhand-Bold, Snell Roundhand;font-weight:700;}.cls-2,.cls-3,.cls-5{fill:#f1cb6c;}.cls-3{font-size:40px;font-family:HelveticaNeue, Helvetica Neue;}.cls-4{letter-spacing:-0.09em;}.cls-5{font-size:30px;font-family:HelveticaNeue-UltraLightItalic, Helvetica Neue;font-style:italic;}.cls-6,.cls-7,.cls-8,.cls-9{fill:#fff;}.cls-7{fill-rule:evenodd;}.cls-8,.cls-9{font-size:11.13px;}.cls-8{font-family:SFUIDisplay-Regular, SF UI Display;}.cls-13,.cls-22,.cls-9{font-family:SFUIDisplay-Medium, SF UI Display;}.cls-9{letter-spacing:0.01em;}.cls-10{letter-spacing:0em;}.cls-11{letter-spacing:0.01em;}.cls-12{fill:#bd6d5a;}.cls-13,.cls-22{font-size:20.66px;}.cls-13{fill:#191919;}.cls-14{letter-spacing:0em;}.cls-15{letter-spacing:0em;}.cls-16{letter-spacing:-0.02em;}.cls-17{letter-spacing:0em;}.cls-18{letter-spacing:-0.04em;}.cls-19{letter-spacing:0em;}.cls-20{letter-spacing:0em;}.cls-21{fill:#8f596a;}.cls-22{fill:#f1f1f1;}.cls-23{letter-spacing:0em;}.cls-24{letter-spacing:-0.01em;}.cls-25{letter-spacing:-0.02em;}.cls-26{letter-spacing:-0.01em;}.cls-27{letter-spacing:-0.01em;}.cls-28{letter-spacing:-0.02em;}.cls-29{letter-spacing:0em;}.cls-30{letter-spacing:0em;}.cls-31{letter-spacing:-0.01em;}.cls-32{letter-spacing:0em;}.cls-33{letter-spacing:-0.01em;}.cls-34{letter-spacing:0em;}.cls-35{letter-spacing:-0.01em;}.cls-36{letter-spacing:-0.01em;}.cls-37{fill:#a2c9d7;}.cls-38{letter-spacing:0em;}.cls-39{letter-spacing:0em;}.cls-40{letter-spacing:-0.02em;}.cls-41{letter-spacing:0em;}.cls-42{letter-spacing:-0.01em;}.cls-43{letter-spacing:-0.03em;}.cls-44{letter-spacing:0em;}.cls-45{letter-spacing:-0.01em;}.cls-46{letter-spacing:0em;}.cls-47{letter-spacing:-0.01em;}</style></defs><title>Action Movie Screen</title><g id="Action_Movie_Screen" data-name="Action Movie Screen"><rect id="Lazy_Days_Background" data-name="Lazy Days Background" class="cls-1" y="18.54" width="297" height="509.46"/><text class="cls-2" transform="translate(76.56 91.59)">Watch</text><text class="cls-3" transform="translate(92.42 223.99)">D<tspan class="cls-4" x="28.16" y="0">r</tspan><tspan x="37.8" y="0">. No</tspan></text><text class="cls-5" transform="translate(125.03 250) scale(0.58)">(1963)</text><g id="Status_Bar" data-name="Status Bar"><rect x="0.15" width="296.7" height="18.54"/><path class="cls-6" d="M87.76,6.53A7.1,7.1,0,0,1,92.46,8.3l.87-1a8.08,8.08,0,0,0-11.13,0l.87,1A7.09,7.09,0,0,1,87.76,6.53Z"/><path class="cls-6" d="M87.76,9.35a4.31,4.31,0,0,1,2.82,1l.92-1a5.57,5.57,0,0,0-7.49,0l.92,1A4.32,4.32,0,0,1,87.76,9.35Z"/><path class="cls-6" d="M89.66,11.43a2.83,2.83,0,0,0-3.8,0l1.9,2.13Z"/><path class="cls-7" d="M290.36,7.88a1.44,1.44,0,0,1,1.39,1.62,1.44,1.44,0,0,1-1.39,1.62Z"/><path class="cls-6" d="M288.51,5.56a.93.93,0,0,1,.93.93v6a.93.93,0,0,1-.93.93H270.43a.93.93,0,0,1-.93-.93v-6a.93.93,0,0,1,.93-.93h18.08m0-.46H270.43A1.39,1.39,0,0,0,269,6.49v6a1.39,1.39,0,0,0,1.39,1.39h18.08a1.39,1.39,0,0,0,1.39-1.39v-6a1.39,1.39,0,0,0-1.39-1.39Z"/><path class="cls-7" d="M270.89,6H288A.93.93,0,0,1,289,7v5.1A.93.93,0,0,1,288,13H270.89a.93.93,0,0,1-.93-.93V7A.93.93,0,0,1,270.89,6Z"/><path class="cls-7" d="M8.72,7A2.55,2.55,0,1,1,6.17,9.5,2.55,2.55,0,0,1,8.72,7Z"/><path class="cls-7" d="M15.21,7A2.55,2.55,0,1,1,12.66,9.5,2.55,2.55,0,0,1,15.21,7Z"/><path class="cls-7" d="M21.71,7A2.55,2.55,0,1,1,19.16,9.5,2.55,2.55,0,0,1,21.71,7Z"/><path class="cls-6" d="M28.2,7A2.55,2.55,0,1,0,30.75,9.5,2.55,2.55,0,0,0,28.2,7Z"/><path class="cls-6" d="M34.69,7.19A2.32,2.32,0,1,1,32.37,9.5a2.32,2.32,0,0,1,2.32-2.32m0-.23A2.55,2.55,0,1,0,37.24,9.5,2.55,2.55,0,0,0,34.69,7Z"/><text class="cls-8" transform="translate(40.94 13.24)">Carrier</text><text class="cls-8" transform="translate(239.32 13.24)">100%</text><text class="cls-9" transform="translate(128.33 13.24)">11:1<tspan class="cls-10" x="18.53" y="0">1</tspan><tspan class="cls-11" x="23.65" y="0">AM</tspan></text></g><rect class="cls-12" x="0.81" y="484.28" width="295.38" height="43.72" rx="12.15" ry="12.15"/><text class="cls-13" transform="translate(84.43 510.85)">I <tspan class="cls-14" x="9.71" y="0">D</tspan><tspan class="cls-15" x="23.99" y="0">o</tspan><tspan class="cls-16" x="35.59" y="0">n</tspan><tspan class="cls-17" x="46.87" y="0">’</tspan><tspan x="52.5" y="0">t </tspan><tspan class="cls-18" x="64.04" y="0">W</tspan><tspan x="82.62" y="0">a</tspan><tspan class="cls-19" x="93.64" y="0">n</tspan><tspan class="cls-20" x="105.43" y="0">n</tspan><tspan x="117.12" y="0">a</tspan></text><rect class="cls-21" x="0.81" y="420.55" width="295.38" height="43.72" rx="12.15" ry="12.15"/><text class="cls-22" transform="translate(27.3 447.12)"><tspan class="cls-23">B</tspan><tspan class="cls-24" x="12.99" y="0">u</tspan><tspan class="cls-25" x="24.67" y="0">t</tspan><tspan x="31.12" y="0">, </tspan><tspan class="cls-26" x="41.45" y="0">I</tspan><tspan class="cls-27" x="46.24" y="0">’</tspan><tspan class="cls-28" x="51.58" y="0">v</tspan><tspan x="61.69" y="0">e </tspan><tspan class="cls-29" x="77.68" y="0">A</tspan><tspan class="cls-30" x="91.09" y="0">l</tspan><tspan class="cls-31" x="95.66" y="0">r</tspan><tspan class="cls-24" x="102.33" y="0">e</tspan><tspan class="cls-32" x="113.46" y="0">a</tspan><tspan class="cls-33" x="124.45" y="0">d</tspan><tspan x="136.42" y="0">y </tspan><tspan class="cls-34" x="151.94" y="0">S</tspan><tspan x="164.5" y="0">e</tspan><tspan class="cls-19" x="175.73" y="0">e</tspan><tspan x="186.97" y="0">n </tspan><tspan class="cls-35" x="203.52" y="0">T</tspan><tspan class="cls-29" x="215.66" y="0">h</tspan><tspan class="cls-36" x="227.65" y="0">i</tspan><tspan x="232.13" y="0">s</tspan></text><rect class="cls-37" x="0.81" y="326.83" width="295.38" height="43.72" rx="12.15" ry="12.15"/><text class="cls-13" transform="translate(67.24 353.4)"><tspan class="cls-38">O</tspan><tspan class="cls-39" x="15.32" y="0">k</tspan><tspan x="25.97" y="0">, </tspan><tspan class="cls-26" x="36.3" y="0">I</tspan><tspan class="cls-40" x="41.09" y="0">’</tspan><tspan class="cls-41" x="46.35" y="0">l</tspan><tspan x="50.87" y="0">l </tspan><tspan class="cls-18" x="60.24" y="0">W</tspan><tspan class="cls-42" x="78.82" y="0">a</tspan><tspan class="cls-43" x="89.62" y="0">t</tspan><tspan class="cls-44" x="95.85" y="0">c</tspan><tspan x="106.83" y="0">h </tspan><tspan class="cls-45" x="123.65" y="0">T</tspan><tspan class="cls-46" x="135.79" y="0">h</tspan><tspan class="cls-47" x="147.78" y="0">i</tspan><tspan x="152.26" y="0">s</tspan></text></g></svg>