<svg id="Westerns_Movie_Screen" data-name="Westerns Movie Screen" xmlns="http://www.w3.org/2000/svg" viewBox="0 0 297 528"><defs><style>.cls-1{fill:#43204e;}.cls-2{font-size:50px;fill:#f1cb6c;font-family:SnellRoundhand-Bold, Snell Roundhand;font-weight:700;}.cls-3,.cls-4,.cls-5,.cls-6{fill:#fff;}.cls-4{fill-rule:evenodd;}.cls-5,.cls-6{font-size:11.13px;}.cls-5{font-family:SFUIDisplay-Regular, SF UI Display;}.cls-6{font-family:SFUIDisplay-Medium, SF UI Display;letter-spacing:0.01em;}.cls-7{letter-spacing:0em;}.cls-8{letter-spacing:0.01em;}</style></defs><title>Enjoy Your Activity Screen</title><rect id="Lazy_Days_Background" data-name="Lazy Days Background" class="cls-1" y="18.54" width="297" height="509.46"/><text class="cls-2" transform="translate(84.01 213.45)">Enjoy<tspan x="6.45" y="60">Your</tspan><tspan x="-41.65" y="120">Activity!!</tspan></text><g id="Status_Bar" data-name="Status Bar"><rect x="0.15" width="296.7" height="18.54"/><path class="cls-3" d="M87.76,6.53A7.1,7.1,0,0,1,92.46,8.3l.87-1a8.08,8.08,0,0,0-11.13,0l.87,1A7.09,7.09,0,0,1,87.76,6.53Z"/><path class="cls-3" d="M87.76,9.35a4.31,4.31,0,0,1,2.82,1l.92-1a5.57,5.57,0,0,0-7.49,0l.92,1A4.32,4.32,0,0,1,87.76,9.35Z"/><path class="cls-3" d="M89.66,11.43a2.83,2.83,0,0,0-3.8,0l1.9,2.13Z"/><path class="cls-4" d="M290.36,7.88a1.44,1.44,0,0,1,1.39,1.62,1.44,1.44,0,0,1-1.39,1.62Z"/><path class="cls-3" d="M288.51,5.56a.93.93,0,0,1,.93.93v6a.93.93,0,0,1-.93.93H270.43a.93.93,0,0,1-.93-.93v-6a.93.93,0,0,1,.93-.93h18.08m0-.46H270.43A1.39,1.39,0,0,0,269,6.49v6a1.39,1.39,0,0,0,1.39,1.39h18.08a1.39,1.39,0,0,0,1.39-1.39v-6a1.39,1.39,0,0,0-1.39-1.39Z"/><path class="cls-4" d="M270.89,6H288A.93.93,0,0,1,289,7v5.1A.93.93,0,0,1,288,13H270.89a.93.93,0,0,1-.93-.93V7A.93.93,0,0,1,270.89,6Z"/><path class="cls-4" d="M8.72,7A2.55,2.55,0,1,1,6.17,9.5,2.55,2.55,0,0,1,8.72,7Z"/><path class="cls-4" d="M15.21,7A2.55,2.55,0,1,1,12.66,9.5,2.55,2.55,0,0,1,15.21,7Z"/><path class="cls-4" d="M21.71,7A2.55,2.55,0,1,1,19.16,9.5,2.55,2.55,0,0,1,21.71,7Z"/><path class="cls-3" d="M28.2,7A2.55,2.55,0,1,0,30.75,9.5,2.55,2.55,0,0,0,28.2,7Z"/><path class="cls-3" d="M34.69,7.19A2.32,2.32,0,1,1,32.37,9.5a2.32,2.32,0,0,1,2.32-2.32m0-.23A2.55,2.55,0,1,0,37.24,9.5,2.55,2.55,0,0,0,34.69,7Z"/><text class="cls-5" transform="translate(40.94 13.24)">Carrier</text><text class="cls-5" transform="translate(239.32 13.24)">100%</text><text class="cls-6" transform="translate(128.33 13.24)">11:1<tspan class="cls-7" x="18.53" y="0">1</tspan><tspan class="cls-8" x="23.65" y="0">AM</tspan></text></g></svg>