<svg xmlns="http://www.w3.org/2000/svg" viewBox="0 0 297 528"><defs><style>.cls-1{fill:#43204e;}.cls-2{fill:#a2c9d7;stroke:#000;stroke-miterlimit:10;}.cls-3{font-size:30px;fill:#191919;font-family:HelveticaNeue-Bold, Helvetica Neue;}.cls-3,.cls-5{font-weight:700;}.cls-4{letter-spacing:-0.02em;}.cls-5{font-size:85px;fill:#f1cb6c;font-family:SnellRoundhand-Bold, Snell Roundhand;}.cls-6,.cls-7,.cls-8,.cls-9{fill:#fff;}.cls-7{fill-rule:evenodd;}.cls-8,.cls-9{font-size:11.13px;}.cls-8{font-family:SFUIDisplay-Regular, SF UI Display;}.cls-9{font-family:SFUIDisplay-Medium, SF UI Display;letter-spacing:0.01em;}.cls-10{letter-spacing:0em;}.cls-11{letter-spacing:0.01em;}</style></defs><title>Home Screen</title><g id="Home_Screen" data-name="Home Screen"><rect id="Lazy_Days_Background" data-name="Lazy Days Background" class="cls-1" y="18.54" width="297" height="509.46"/><g id="I_m_Bored_butoon" data-name="I&apos;m Bored butoon"><rect id="I_m_Bored_Button" data-name="I&apos;m Bored Button" class="cls-2" x="42" y="393" width="213" height="75" rx="12" ry="12"/><text class="cls-3" transform="translate(74.91 436.14)">I’m Bo<tspan class="cls-4" x="92.16" y="0">r</tspan><tspan x="103.29" y="0">ed!</tspan></text></g><text class="cls-5" transform="translate(56.35 148.17)">Lazy<tspan x="-15.72" y="102">Dayz</tspan></text><g id="Status_Bar" data-name="Status Bar"><rect width="296.7" height="18.54"/><path class="cls-6" d="M87.62,6.53A7.1,7.1,0,0,1,92.31,8.3l.87-1a8.08,8.08,0,0,0-11.13,0l.87,1A7.09,7.09,0,0,1,87.62,6.53Z"/><path class="cls-6" d="M87.62,9.35a4.31,4.31,0,0,1,2.82,1l.92-1a5.57,5.57,0,0,0-7.49,0l.92,1A4.32,4.32,0,0,1,87.62,9.35Z"/><path class="cls-6" d="M89.52,11.43a2.83,2.83,0,0,0-3.8,0l1.9,2.13Z"/><path class="cls-7" d="M290.21,7.88A1.44,1.44,0,0,1,291.6,9.5a1.44,1.44,0,0,1-1.39,1.62Z"/><path class="cls-6" d="M288.36,5.56a.93.93,0,0,1,.93.93v6a.93.93,0,0,1-.93.93H270.28a.93.93,0,0,1-.93-.93v-6a.93.93,0,0,1,.93-.93h18.08m0-.46H270.28a1.39,1.39,0,0,0-1.39,1.39v6a1.39,1.39,0,0,0,1.39,1.39h18.08a1.39,1.39,0,0,0,1.39-1.39v-6a1.39,1.39,0,0,0-1.39-1.39Z"/><path class="cls-7" d="M270.74,6H287.9a.93.93,0,0,1,.93.93v5.1a.93.93,0,0,1-.93.93H270.74a.93.93,0,0,1-.93-.93V7A.93.93,0,0,1,270.74,6Z"/><path class="cls-7" d="M8.58,7A2.55,2.55,0,1,1,6,9.5,2.55,2.55,0,0,1,8.58,7Z"/><path class="cls-7" d="M15.07,7A2.55,2.55,0,1,1,12.52,9.5,2.55,2.55,0,0,1,15.07,7Z"/><path class="cls-7" d="M21.56,7A2.55,2.55,0,1,1,19,9.5,2.55,2.55,0,0,1,21.56,7Z"/><path class="cls-6" d="M28,7A2.55,2.55,0,1,0,30.6,9.5,2.55,2.55,0,0,0,28,7Z"/><path class="cls-6" d="M34.54,7.19A2.32,2.32,0,1,1,32.22,9.5a2.32,2.32,0,0,1,2.32-2.32m0-.23A2.55,2.55,0,1,0,37.09,9.5,2.55,2.55,0,0,0,34.54,7Z"/><text class="cls-8" transform="translate(40.8 13.24)">Carrier</text><text class="cls-8" transform="translate(239.18 13.24)">100%</text><text class="cls-9" transform="translate(128.18 13.24)">11:1<tspan class="cls-10" x="18.53" y="0">1</tspan><tspan class="cls-11" x="23.65" y="0">AM</tspan></text></g></g></svg>