<svg xmlns="http://www.w3.org/2000/svg" viewBox="0 0 297 528"><defs><style>.cls-1{fill:#43204e;}.cls-2{font-size:50px;}.cls-2,.cls-3{fill:#f1cb6c;font-family:SnellRoundhand-Bold, Snell Roundhand;font-weight:700;}.cls-3{font-size:20px;}.cls-4,.cls-5,.cls-6,.cls-7{fill:#fff;}.cls-5{fill-rule:evenodd;}.cls-6,.cls-7{font-size:11.13px;}.cls-6{font-family:SFUIDisplay-Regular, SF UI Display;}.cls-11,.cls-20,.cls-41,.cls-7{font-family:SFUIDisplay-Medium, SF UI Display;}.cls-7{letter-spacing:0.01em;}.cls-8{letter-spacing:0em;}.cls-9{letter-spacing:0.01em;}.cls-10{fill:#bd6d5a;}.cls-11{font-size:20.66px;}.cls-11,.cls-20,.cls-41{fill:#191919;}.cls-12{letter-spacing:0em;}.cls-13{letter-spacing:0em;}.cls-14{letter-spacing:-0.02em;}.cls-15{letter-spacing:0em;}.cls-16{letter-spacing:-0.04em;}.cls-17{letter-spacing:0em;}.cls-18{letter-spacing:0em;}.cls-19{fill:#a2c9d7;}.cls-20,.cls-41{font-size:10px;}.cls-21{letter-spacing:-0.01em;}.cls-22{letter-spacing:0.01em;}.cls-23{letter-spacing:-0.01em;}.cls-24{letter-spacing:0.01em;}.cls-25{letter-spacing:0.01em;}.cls-26{letter-spacing:0.01em;}.cls-27{letter-spacing:0.01em;}.cls-28{letter-spacing:0.01em;}.cls-29{letter-spacing:0.01em;}.cls-30{letter-spacing:0em;}.cls-31{letter-spacing:0.01em;}.cls-32{letter-spacing:0em;}.cls-33{letter-spacing:0em;}.cls-34{letter-spacing:0.01em;}.cls-35{letter-spacing:0em;}.cls-36{letter-spacing:0.01em;}.cls-37{letter-spacing:0.01em;}.cls-38{letter-spacing:0.01em;}.cls-39{letter-spacing:0.01em;}.cls-40{letter-spacing:0em;}.cls-41,.cls-53{letter-spacing:-0.03em;}.cls-42{letter-spacing:0em;}.cls-43{letter-spacing:-0.01em;}.cls-44{letter-spacing:0.01em;}.cls-45{letter-spacing:0em;}.cls-46{letter-spacing:-0.01em;}.cls-47{letter-spacing:0em;}.cls-48{letter-spacing:-0.01em;}.cls-49{letter-spacing:0em;}.cls-50{letter-spacing:0em;}.cls-51{letter-spacing:0.01em;}.cls-52{letter-spacing:0em;}.cls-54{letter-spacing:0.01em;}.cls-55{letter-spacing:0.01em;}.cls-56{letter-spacing:0.01em;}.cls-57{letter-spacing:0.01em;}.cls-58{letter-spacing:0.01em;}.cls-59{letter-spacing:0em;}.cls-60{letter-spacing:-0.01em;}.cls-61{letter-spacing:0.02em;}.cls-62{letter-spacing:0em;}.cls-63{letter-spacing:0.01em;}.cls-64{letter-spacing:0em;}.cls-65{letter-spacing:0.01em;}.cls-66{letter-spacing:0.02em;}.cls-67{letter-spacing:0.01em;}.cls-68{letter-spacing:-0.01em;}.cls-69{letter-spacing:0em;}.cls-70{letter-spacing:0.01em;}.cls-71{letter-spacing:0.01em;}.cls-72{letter-spacing:0.01em;}.cls-73{letter-spacing:0em;}.cls-74{letter-spacing:0.01em;}.cls-75{letter-spacing:0.01em;}.cls-76{letter-spacing:-0.01em;}.cls-77{letter-spacing:0.01em;}</style></defs><title>Movie Genre Screen</title><g id="Movie_Genre_Screen" data-name="Movie Genre Screen"><rect id="Lazy_Days_Background" data-name="Lazy Days Background" class="cls-1" y="18.54" width="297" height="509.46"/><text class="cls-2" transform="translate(76.56 91.59)">Watch<tspan x="-18.25" y="60">a Movie</tspan></text><text class="cls-3" transform="translate(22.04 203.99)">What genre do you wanna see?</text><g id="Status_Bar" data-name="Status Bar"><rect x="0.15" width="296.7" height="18.54"/><path class="cls-4" d="M87.76,6.53A7.1,7.1,0,0,1,92.46,8.3l.87-1a8.08,8.08,0,0,0-11.13,0l.87,1A7.09,7.09,0,0,1,87.76,6.53Z"/><path class="cls-4" d="M87.76,9.35a4.31,4.31,0,0,1,2.82,1l.92-1a5.57,5.57,0,0,0-7.49,0l.92,1A4.32,4.32,0,0,1,87.76,9.35Z"/><path class="cls-4" d="M89.66,11.43a2.83,2.83,0,0,0-3.8,0l1.9,2.13Z"/><path class="cls-5" d="M290.36,7.88a1.44,1.44,0,0,1,1.39,1.62,1.44,1.44,0,0,1-1.39,1.62Z"/><path class="cls-4" d="M288.51,5.56a.93.93,0,0,1,.93.93v6a.93.93,0,0,1-.93.93H270.43a.93.93,0,0,1-.93-.93v-6a.93.93,0,0,1,.93-.93h18.08m0-.46H270.43A1.39,1.39,0,0,0,269,6.49v6a1.39,1.39,0,0,0,1.39,1.39h18.08a1.39,1.39,0,0,0,1.39-1.39v-6a1.39,1.39,0,0,0-1.39-1.39Z"/><path class="cls-5" d="M270.89,6H288A.93.93,0,0,1,289,7v5.1A.93.93,0,0,1,288,13H270.89a.93.93,0,0,1-.93-.93V7A.93.93,0,0,1,270.89,6Z"/><path class="cls-5" d="M8.72,7A2.55,2.55,0,1,1,6.17,9.5,2.55,2.55,0,0,1,8.72,7Z"/><path class="cls-5" d="M15.21,7A2.55,2.55,0,1,1,12.66,9.5,2.55,2.55,0,0,1,15.21,7Z"/><path class="cls-5" d="M21.71,7A2.55,2.55,0,1,1,19.16,9.5,2.55,2.55,0,0,1,21.71,7Z"/><path class="cls-4" d="M28.2,7A2.55,2.55,0,1,0,30.75,9.5,2.55,2.55,0,0,0,28.2,7Z"/><path class="cls-4" d="M34.69,7.19A2.32,2.32,0,1,1,32.37,9.5a2.32,2.32,0,0,1,2.32-2.32m0-.23A2.55,2.55,0,1,0,37.24,9.5,2.55,2.55,0,0,0,34.69,7Z"/><text class="cls-6" transform="translate(40.94 13.24)">Carrier</text><text class="cls-6" transform="translate(239.32 13.24)">100%</text><text class="cls-7" transform="translate(128.33 13.24)">11:1<tspan class="cls-8" x="18.53" y="0">1</tspan><tspan class="cls-9" x="23.65" y="0">AM</tspan></text></g><rect class="cls-10" x="0.81" y="484.28" width="295.38" height="43.72" rx="12.15" ry="12.15"/><text class="cls-11" transform="translate(84.43 510.85)">I <tspan class="cls-12" x="9.71" y="0">D</tspan><tspan class="cls-13" x="23.99" y="0">o</tspan><tspan class="cls-14" x="35.59" y="0">n</tspan><tspan class="cls-15" x="46.87" y="0">’</tspan><tspan x="52.5" y="0">t </tspan><tspan class="cls-16" x="64.04" y="0">W</tspan><tspan x="82.62" y="0">a</tspan><tspan class="cls-17" x="93.64" y="0">n</tspan><tspan class="cls-18" x="105.43" y="0">n</tspan><tspan x="117.12" y="0">a</tspan></text><rect class="cls-19" x="3.23" y="236.59" width="142.91" height="21.15" rx="5.88" ry="5.88"/><text class="cls-20" transform="translate(60.31 249.45)"><tspan class="cls-21">A</tspan><tspan class="cls-22" x="6.43" y="0">c</tspan><tspan class="cls-23" x="11.82" y="0">t</tspan><tspan class="cls-24" x="15.04" y="0">i</tspan><tspan class="cls-25" x="17.33" y="0">o</tspan><tspan x="23.05" y="0">n</tspan></text><rect class="cls-19" x="3.23" y="410.85" width="142.91" height="21.15" rx="5.88" ry="5.88"/><text class="cls-20" transform="translate(40.52 423.71)"><tspan class="cls-26">S</tspan><tspan class="cls-27" x="6.18" y="0">c</tspan><tspan class="cls-24" x="11.58" y="0">i</tspan><tspan class="cls-28" x="13.87" y="0">e</tspan><tspan class="cls-25" x="19.41" y="0">n</tspan><tspan class="cls-29" x="25.21" y="0">c</tspan><tspan x="30.61" y="0">e </tspan><tspan class="cls-30" x="38.34" y="0">F</tspan><tspan class="cls-24" x="43.72" y="0">ic</tspan><tspan class="cls-23" x="51.41" y="0">t</tspan><tspan class="cls-24" x="54.62" y="0">i</tspan><tspan class="cls-25" x="56.92" y="0">o</tspan><tspan x="62.63" y="0">n</tspan></text><rect class="cls-19" x="3.23" y="367.28" width="142.91" height="21.15" rx="5.88" ry="5.88"/><text class="cls-20" transform="translate(60.31 380.14)"><tspan class="cls-31">H</tspan><tspan class="cls-25" x="7.22" y="0">o</tspan><tspan class="cls-32" x="12.94" y="0">r</tspan><tspan class="cls-33" x="16.33" y="0">r</tspan><tspan class="cls-25" x="19.67" y="0">o</tspan><tspan x="25.38" y="0">r</tspan></text><rect class="cls-19" x="3.23" y="323.72" width="142.91" height="21.15" rx="5.88" ry="5.88"/><text class="cls-20" transform="translate(59.84 336.58)"><tspan class="cls-34">D</tspan><tspan class="cls-35" x="7.04" y="0">r</tspan><tspan class="cls-36" x="10.39" y="0">a</tspan><tspan class="cls-37" x="15.82" y="0">m</tspan><tspan x="24.37" y="0">a</tspan></text><rect class="cls-19" x="3.23" y="280.16" width="142.91" height="21.15" rx="5.88" ry="5.88"/><text class="cls-20" transform="translate(55.69 293.01)"><tspan class="cls-38">C</tspan><tspan class="cls-25" x="7.05" y="0">om</tspan><tspan class="cls-39" x="21.35" y="0">e</tspan><tspan class="cls-40" x="26.89" y="0">d</tspan><tspan x="32.78" y="0">y</tspan></text><rect class="cls-19" x="76.97" y="454.41" width="142.91" height="21.15" rx="5.88" ry="5.88"/><text class="cls-41" transform="translate(127.22 467.27)">W<tspan class="cls-42" x="9.11" y="0">es</tspan><tspan class="cls-43" x="19.62" y="0">t</tspan><tspan class="cls-28" x="22.75" y="0">e</tspan><tspan class="cls-32" x="28.29" y="0">r</tspan><tspan class="cls-44" x="31.69" y="0">n</tspan><tspan class="cls-45" x="37.44" y="0">s</tspan></text><rect class="cls-19" x="152.17" y="236.59" width="142.91" height="21.15" rx="5.88" ry="5.88"/><text class="cls-20" transform="translate(200.42 249.45)"><tspan class="cls-46">A</tspan><tspan class="cls-47" x="6.46" y="0">d</tspan><tspan class="cls-48" x="12.37" y="0">v</tspan><tspan class="cls-28" x="17.37" y="0">e</tspan><tspan class="cls-49" x="22.91" y="0">n</tspan><tspan class="cls-50" x="28.6" y="0">t</tspan><tspan class="cls-51" x="31.83" y="0">u</tspan><tspan class="cls-52" x="37.64" y="0">r</tspan><tspan x="40.97" y="0">e</tspan></text><rect class="cls-19" x="152.17" y="410.85" width="142.91" height="21.15" rx="5.88" ry="5.88"/><text class="cls-20" transform="translate(214.67 423.71)"><tspan class="cls-53">W</tspan><tspan class="cls-54" x="9.11" y="0">a</tspan><tspan x="14.54" y="0">r</tspan></text><rect class="cls-19" x="152.17" y="367.28" width="142.91" height="21.15" rx="5.88" ry="5.88"/><text class="cls-20" transform="translate(187.67 380.14)"><tspan class="cls-55">M</tspan><tspan class="cls-56" x="8.56" y="0">u</tspan><tspan class="cls-57" x="14.34" y="0">s</tspan><tspan class="cls-24" x="19.37" y="0">i</tspan><tspan class="cls-58" x="21.66" y="0">c</tspan><tspan class="cls-29" x="27.09" y="0">a</tspan><tspan class="cls-59" x="32.51" y="0">l</tspan><tspan class="cls-60" x="34.79" y="0">s</tspan><tspan class="cls-61" x="39.7" y="0">/</tspan><tspan class="cls-62" x="42.91" y="0">D</tspan><tspan class="cls-36" x="49.85" y="0">a</tspan><tspan class="cls-63" x="55.28" y="0">n</tspan><tspan class="cls-27" x="61.08" y="0">c</tspan><tspan x="66.48" y="0">e</tspan></text><rect class="cls-19" x="152.17" y="323.72" width="142.91" height="21.15" rx="5.88" ry="5.88"/><text class="cls-20" transform="translate(188.91 336.58)"><tspan class="cls-64">E</tspan><tspan class="cls-65" x="5.62" y="0">pi</tspan><tspan class="cls-54" x="13.79" y="0">c</tspan><tspan class="cls-60" x="19.21" y="0">s</tspan><tspan class="cls-66" x="24.13" y="0">/</tspan><tspan class="cls-67" x="27.33" y="0">H</tspan><tspan class="cls-59" x="34.55" y="0">i</tspan><tspan class="cls-37" x="36.82" y="0">s</tspan><tspan class="cls-68" x="41.84" y="0">t</tspan><tspan class="cls-25" x="44.98" y="0">o</tspan><tspan class="cls-69" x="50.69" y="0">r</tspan><tspan class="cls-24" x="54.07" y="0">i</tspan><tspan class="cls-70" x="56.36" y="0">c</tspan><tspan class="cls-71" x="61.79" y="0">a</tspan><tspan x="67.21" y="0">l</tspan></text><rect class="cls-19" x="152.17" y="280.16" width="142.91" height="21.15" rx="5.88" ry="5.88"/><text class="cls-20" transform="translate(183.86 293.01)"><tspan class="cls-72">C</tspan><tspan class="cls-73" x="7.04" y="0">r</tspan><tspan class="cls-25" x="10.42" y="0">im</tspan><tspan x="21.31" y="0">e &amp; </tspan><tspan class="cls-74" x="38.16" y="0">G</tspan><tspan class="cls-36" x="45.35" y="0">a</tspan><tspan class="cls-63" x="50.78" y="0">n</tspan><tspan class="cls-75" x="56.58" y="0">g</tspan><tspan class="cls-37" x="62.47" y="0">s</tspan><tspan class="cls-76" x="67.49" y="0">t</tspan><tspan class="cls-77" x="70.63" y="0">e</tspan><tspan x="76.17" y="0">r</tspan></text></g></svg>