<svg xmlns="http://www.w3.org/2000/svg" viewBox="0 0 297 528"><defs><style>.cls-1{fill:#43204e;}.cls-1,.cls-13,.cls-2,.cls-3,.cls-4{opacity:0.5;}.cls-2{font-size:50px;}.cls-2,.cls-3{fill:#f1cb6c;font-family:SnellRoundhand-Bold, Snell Roundhand;font-weight:700;}.cls-3{font-size:20px;}.cls-5,.cls-6,.cls-7,.cls-8{fill:#fff;}.cls-6{fill-rule:evenodd;}.cls-7,.cls-8{font-size:11.13px;}.cls-13,.cls-14,.cls-15,.cls-17,.cls-20,.cls-23,.cls-25,.cls-26,.cls-28,.cls-7{font-family:SFUIDisplay-Regular, SF UI Display;}.cls-31,.cls-8{font-family:SFUIDisplay-Medium, SF UI Display;}.cls-8{letter-spacing:0.01em;}.cls-9{letter-spacing:0em;}.cls-10{letter-spacing:0.01em;}.cls-11{fill:#a2c9d7;}.cls-12{fill:#adb0a7;}.cls-13{font-size:17.19px;}.cls-14,.cls-24{opacity:0.35;}.cls-14{font-size:14.28px;}.cls-15,.cls-22{opacity:0.2;}.cls-15{font-size:8.63px;}.cls-16{letter-spacing:0em;}.cls-17,.cls-19{opacity:0.1;}.cls-17{font-size:2.99px;}.cls-18{letter-spacing:0em;}.cls-20{font-size:3.31px;}.cls-21{letter-spacing:0em;}.cls-23{font-size:8.86px;}.cls-25{font-size:14.18px;}.cls-26{font-size:18.3px;}.cls-27{letter-spacing:-0.01em;}.cls-28{font-size:22.27px;}.cls-29{letter-spacing:-0.01em;}.cls-30{fill:#bd6d5a;}.cls-31{font-size:20.66px;fill:#191919;}.cls-32{letter-spacing:0em;}.cls-33{letter-spacing:0em;}.cls-34{letter-spacing:-0.02em;}.cls-35{letter-spacing:0em;}.cls-36{letter-spacing:-0.04em;}.cls-37{letter-spacing:0em;}.cls-38{letter-spacing:0em;}</style></defs><title>Video Game Console Screen (Early Concept)</title><g id="Video_Game_Console_Screen_Early_Concept_" data-name="Video Game Console Screen (Early Concept)"><rect id="Lazy_Days_Background" data-name="Lazy Days Background" class="cls-1" y="18.54" width="297" height="509.46"/><text class="cls-2" transform="translate(37.69 91.59)">Go Play a<tspan x="-18.27" y="60">Video Game</tspan></text><text class="cls-3" transform="translate(31.86 223.99)">What console do you wanna <tspan x="82" y="24">play on?</tspan></text><g id="Status_Bar" data-name="Status Bar" class="cls-4"><rect x="0.15" width="296.7" height="18.54"/><path class="cls-5" d="M87.76,6.53A7.1,7.1,0,0,1,92.46,8.3l.87-1a8.08,8.08,0,0,0-11.13,0l.87,1A7.09,7.09,0,0,1,87.76,6.53Z"/><path class="cls-5" d="M87.76,9.35a4.31,4.31,0,0,1,2.82,1l.92-1a5.57,5.57,0,0,0-7.49,0l.92,1A4.32,4.32,0,0,1,87.76,9.35Z"/><path class="cls-5" d="M89.66,11.43a2.83,2.83,0,0,0-3.8,0l1.9,2.13Z"/><path class="cls-6" d="M290.36,7.88a1.44,1.44,0,0,1,1.39,1.62,1.44,1.44,0,0,1-1.39,1.62Z"/><path class="cls-5" d="M288.51,5.56a.93.93,0,0,1,.93.93v6a.93.93,0,0,1-.93.93H270.43a.93.93,0,0,1-.93-.93v-6a.93.93,0,0,1,.93-.93h18.08m0-.46H270.43A1.39,1.39,0,0,0,269,6.49v6a1.39,1.39,0,0,0,1.39,1.39h18.08a1.39,1.39,0,0,0,1.39-1.39v-6a1.39,1.39,0,0,0-1.39-1.39Z"/><path class="cls-6" d="M270.89,6H288A.93.93,0,0,1,289,7v5.1A.93.93,0,0,1,288,13H270.89a.93.93,0,0,1-.93-.93V7A.93.93,0,0,1,270.89,6Z"/><path class="cls-6" d="M8.72,7A2.55,2.55,0,1,1,6.17,9.5,2.55,2.55,0,0,1,8.72,7Z"/><path class="cls-6" d="M15.21,7A2.55,2.55,0,1,1,12.66,9.5,2.55,2.55,0,0,1,15.21,7Z"/><path class="cls-6" d="M21.71,7A2.55,2.55,0,1,1,19.16,9.5,2.55,2.55,0,0,1,21.71,7Z"/><path class="cls-5" d="M28.2,7A2.55,2.55,0,1,0,30.75,9.5,2.55,2.55,0,0,0,28.2,7Z"/><path class="cls-5" d="M34.69,7.19A2.32,2.32,0,1,1,32.37,9.5a2.32,2.32,0,0,1,2.32-2.32m0-.23A2.55,2.55,0,1,0,37.24,9.5,2.55,2.55,0,0,0,34.69,7Z"/><text class="cls-7" transform="translate(40.94 13.24)">Carrier</text><text class="cls-7" transform="translate(239.32 13.24)">100%</text><text class="cls-8" transform="translate(128.33 13.24)">11:1<tspan class="cls-9" x="18.53" y="0">1</tspan><tspan class="cls-10" x="23.65" y="0">AM</tspan></text></g><g class="cls-4"><rect class="cls-11" y="277.52" width="297" height="200.48"/><rect class="cls-12" y="277.52" width="297" height="0.46"/><text class="cls-13" transform="translate(134.58 414.76) scale(1.12 1)">3DS</text><text class="cls-14" transform="translate(139.93 433.99) scale(1.33 1)">PC</text><text class="cls-15" transform="translate(124.2 450.84) scale(2.14 1)">PS Vi<tspan class="cls-16" x="19.56" y="0">t</tspan><tspan x="22.19" y="0">a</tspan></text><text class="cls-17" transform="translate(103.42 459.04) scale(5.78 1)">Plays<tspan class="cls-18" x="6.88" y="0">t</tspan><tspan x="7.79" y="0">ation 3</tspan></text><g class="cls-19"><text class="cls-20" transform="translate(102.67 297.94) scale(5.32 1)">Plays<tspan class="cls-21" x="7.63" y="0">t</tspan><tspan x="8.64" y="0">ation 4</tspan></text></g><g class="cls-22"><text class="cls-23" transform="translate(140.31 307.18) scale(2.04 1)">Wii</text></g><g class="cls-24"><text class="cls-25" transform="translate(131.03 325.5) scale(1.33 1)">Wii U</text></g><g class="cls-4"><text class="cls-26" transform="translate(111.79 351) scale(1.04 1)">Xb<tspan class="cls-27" x="22.1" y="0">o</tspan><tspan x="31.96" y="0">x 360</tspan></text></g><text class="cls-28" transform="translate(101.09 385.81)">Xb<tspan class="cls-29" x="26.9" y="0">o</tspan><tspan x="38.91" y="0">x One</tspan></text><rect class="cls-12" y="361.06" width="297" height="0.46"/><rect class="cls-12" y="393.54" width="297" height="0.46"/></g><g class="cls-4"><rect class="cls-30" x="0.81" y="484.28" width="295.38" height="43.72" rx="12.15" ry="12.15"/><text class="cls-31" transform="translate(84.43 510.85)">I <tspan class="cls-32" x="9.71" y="0">D</tspan><tspan class="cls-33" x="23.99" y="0">o</tspan><tspan class="cls-34" x="35.59" y="0">n</tspan><tspan class="cls-35" x="46.87" y="0">’</tspan><tspan x="52.5" y="0">t </tspan><tspan class="cls-36" x="64.04" y="0">W</tspan><tspan x="82.62" y="0">a</tspan><tspan class="cls-37" x="93.64" y="0">n</tspan><tspan class="cls-38" x="105.43" y="0">n</tspan><tspan x="117.12" y="0">a</tspan></text></g></g></svg>