<svg id="Westerns_Movie_Screen" data-name="Westerns Movie Screen" xmlns="http://www.w3.org/2000/svg" viewBox="0 0 297 528"><defs><style>.cls-1{fill:#43204e;}.cls-2{font-size:50px;font-family:SnellRoundhand-Bold, Snell Roundhand;font-weight:700;}.cls-2,.cls-3{fill:#f1cb6c;}.cls-3{font-size:40px;font-family:HelveticaNeue, Helvetica Neue;}.cls-4{letter-spacing:-0.04em;}.cls-5,.cls-6,.cls-7,.cls-8{fill:#fff;}.cls-6{fill-rule:evenodd;}.cls-7,.cls-8{font-size:11.13px;}.cls-7{font-family:SFUIDisplay-Regular, SF UI Display;}.cls-12,.cls-21,.cls-8{font-family:SFUIDisplay-Medium, SF UI Display;}.cls-8{letter-spacing:0.01em;}.cls-9{letter-spacing:0em;}.cls-10{letter-spacing:0.01em;}.cls-11{fill:#bd6d5a;}.cls-12,.cls-21{font-size:20.66px;}.cls-12{fill:#191919;}.cls-13{letter-spacing:0em;}.cls-14{letter-spacing:0em;}.cls-15{letter-spacing:-0.02em;}.cls-16{letter-spacing:0em;}.cls-17{letter-spacing:-0.04em;}.cls-18{letter-spacing:0em;}.cls-19{letter-spacing:0em;}.cls-20{fill:#8f596a;}.cls-21{fill:#f1f1f1;}.cls-22{letter-spacing:0em;}.cls-23{letter-spacing:-0.01em;}.cls-24{letter-spacing:-0.02em;}.cls-25{letter-spacing:-0.01em;}.cls-26{letter-spacing:-0.01em;}.cls-27{letter-spacing:-0.02em;}.cls-28{letter-spacing:0em;}.cls-29{letter-spacing:0em;}.cls-30{letter-spacing:-0.01em;}.cls-31{letter-spacing:0em;}.cls-32{letter-spacing:-0.01em;}.cls-33{letter-spacing:0em;}.cls-34{letter-spacing:0em;}.cls-35{letter-spacing:-0.01em;}.cls-36{letter-spacing:-0.01em;}.cls-37{letter-spacing:0em;}.cls-38{fill:#a2c9d7;}.cls-39{letter-spacing:0em;}.cls-40{letter-spacing:0em;}.cls-41{letter-spacing:-0.02em;}.cls-42{letter-spacing:0em;}.cls-43{letter-spacing:-0.01em;}</style></defs><title>Walk Screen</title><rect id="Lazy_Days_Background" data-name="Lazy Days Background" class="cls-1" y="18.54" width="297" height="509.46"/><text class="cls-2" transform="translate(115.91 91.59)">Go</text><text class="cls-3" transform="translate(51.33 223.99)">For A <tspan class="cls-4" x="107.4" y="0">W</tspan><tspan x="142.96" y="0">alk</tspan></text><g id="Status_Bar" data-name="Status Bar"><rect x="0.15" width="296.7" height="18.54"/><path class="cls-5" d="M87.76,6.53A7.1,7.1,0,0,1,92.46,8.3l.87-1a8.08,8.08,0,0,0-11.13,0l.87,1A7.09,7.09,0,0,1,87.76,6.53Z"/><path class="cls-5" d="M87.76,9.35a4.31,4.31,0,0,1,2.82,1l.92-1a5.57,5.57,0,0,0-7.49,0l.92,1A4.32,4.32,0,0,1,87.76,9.35Z"/><path class="cls-5" d="M89.66,11.43a2.83,2.83,0,0,0-3.8,0l1.9,2.13Z"/><path class="cls-6" d="M290.36,7.88a1.44,1.44,0,0,1,1.39,1.62,1.44,1.44,0,0,1-1.39,1.62Z"/><path class="cls-5" d="M288.51,5.56a.93.93,0,0,1,.93.93v6a.93.93,0,0,1-.93.93H270.43a.93.93,0,0,1-.93-.93v-6a.93.93,0,0,1,.93-.93h18.08m0-.46H270.43A1.39,1.39,0,0,0,269,6.49v6a1.39,1.39,0,0,0,1.39,1.39h18.08a1.39,1.39,0,0,0,1.39-1.39v-6a1.39,1.39,0,0,0-1.39-1.39Z"/><path class="cls-6" d="M270.89,6H288A.93.93,0,0,1,289,7v5.1A.93.93,0,0,1,288,13H270.89a.93.93,0,0,1-.93-.93V7A.93.93,0,0,1,270.89,6Z"/><path class="cls-6" d="M8.72,7A2.55,2.55,0,1,1,6.17,9.5,2.55,2.55,0,0,1,8.72,7Z"/><path class="cls-6" d="M15.21,7A2.55,2.55,0,1,1,12.66,9.5,2.55,2.55,0,0,1,15.21,7Z"/><path class="cls-6" d="M21.71,7A2.55,2.55,0,1,1,19.16,9.5,2.55,2.55,0,0,1,21.71,7Z"/><path class="cls-5" d="M28.2,7A2.55,2.55,0,1,0,30.75,9.5,2.55,2.55,0,0,0,28.2,7Z"/><path class="cls-5" d="M34.69,7.19A2.32,2.32,0,1,1,32.37,9.5a2.32,2.32,0,0,1,2.32-2.32m0-.23A2.55,2.55,0,1,0,37.24,9.5,2.55,2.55,0,0,0,34.69,7Z"/><text class="cls-7" transform="translate(40.94 13.24)">Carrier</text><text class="cls-7" transform="translate(239.32 13.24)">100%</text><text class="cls-8" transform="translate(128.33 13.24)">11:1<tspan class="cls-9" x="18.53" y="0">1</tspan><tspan class="cls-10" x="23.65" y="0">AM</tspan></text></g><rect class="cls-11" x="0.81" y="484.28" width="295.38" height="43.72" rx="12.15" ry="12.15"/><text class="cls-12" transform="translate(84.43 510.85)">I <tspan class="cls-13" x="9.71" y="0">D</tspan><tspan class="cls-14" x="23.99" y="0">o</tspan><tspan class="cls-15" x="35.59" y="0">n</tspan><tspan class="cls-16" x="46.87" y="0">’</tspan><tspan x="52.5" y="0">t </tspan><tspan class="cls-17" x="64.04" y="0">W</tspan><tspan x="82.62" y="0">a</tspan><tspan class="cls-18" x="93.64" y="0">n</tspan><tspan class="cls-19" x="105.43" y="0">n</tspan><tspan x="117.12" y="0">a</tspan></text><rect class="cls-20" x="0.81" y="420.55" width="295.38" height="43.72" rx="12.15" ry="12.15"/><text class="cls-21" transform="translate(26.27 447.12)"><tspan class="cls-22">B</tspan><tspan class="cls-23" x="12.99" y="0">u</tspan><tspan class="cls-24" x="24.67" y="0">t</tspan><tspan x="31.12" y="0">, </tspan><tspan class="cls-25" x="41.45" y="0">I</tspan><tspan class="cls-26" x="46.24" y="0">’</tspan><tspan class="cls-27" x="51.58" y="0">v</tspan><tspan x="61.69" y="0">e </tspan><tspan class="cls-28" x="77.68" y="0">A</tspan><tspan class="cls-29" x="91.09" y="0">l</tspan><tspan class="cls-30" x="95.66" y="0">r</tspan><tspan class="cls-23" x="102.33" y="0">e</tspan><tspan class="cls-31" x="113.46" y="0">a</tspan><tspan class="cls-32" x="124.45" y="0">d</tspan><tspan x="136.42" y="0">y </tspan><tspan class="cls-33" x="151.94" y="0">D</tspan><tspan class="cls-34" x="166.22" y="0">on</tspan><tspan x="189.59" y="0">e </tspan><tspan class="cls-35" x="205.58" y="0">T</tspan><tspan class="cls-28" x="217.72" y="0">h</tspan><tspan class="cls-36" x="229.71" y="0">i</tspan><tspan class="cls-37" x="234.19" y="0">s</tspan></text><rect class="cls-38" x="0.81" y="326.83" width="295.38" height="43.72" rx="12.15" ry="12.15"/><text class="cls-12" transform="translate(83.61 353.4)"><tspan class="cls-39">O</tspan><tspan class="cls-40" x="15.32" y="0">k</tspan><tspan x="25.97" y="0">, </tspan><tspan class="cls-25" x="36.3" y="0">I</tspan><tspan class="cls-41" x="41.09" y="0">’</tspan><tspan class="cls-42" x="46.35" y="0">l</tspan><tspan x="50.87" y="0">l </tspan><tspan class="cls-13" x="60.24" y="0">D</tspan><tspan x="74.53" y="0">o </tspan><tspan class="cls-35" x="90.91" y="0">T</tspan><tspan class="cls-28" x="103.05" y="0">h</tspan><tspan class="cls-43" x="115.04" y="0">i</tspan><tspan x="119.52" y="0">s</tspan></text></svg>